<?xml version="1.0" standalone="no"?>
<!DOCTYPE svg PUBLIC "-//W3C//DTD SVG 20010904//EN"
 "http://www.w3.org/TR/2001/REC-SVG-20010904/DTD/svg10.dtd">
<svg version="1.0" xmlns="http://www.w3.org/2000/svg"
 width="267.000000pt" height="267.000000pt" viewBox="0 0 267.000000 267.000000"
 preserveAspectRatio="xMidYMid meet">
<metadata>
Created by potrace 1.11, written by Peter Selinger 2001-2013
</metadata>
<g transform="translate(0.000000,267.000000) scale(0.100000,-0.100000)"
fill="#000000" stroke="none">
<path d="M1127 2655 c-296 -48 -541 -175 -753 -390 -191 -194 -319 -450 -358
-716 -103 -700 346 -1340 1047 -1491 146 -31 398 -31 544 0 476 103 847 431
998 885 154 464 30 983 -320 1332 -188 189 -411 310 -670 367 -121 26 -368 33
-488 13z m413 -599 c85 -16 180 -49 209 -74 19 -17 19 -18 -27 -98 -48 -82
-48 -82 -74 -68 -98 51 -300 61 -415 21 -174 -60 -297 -195 -339 -373 -63
-269 126 -553 402 -605 108 -21 277 7 386 62 l38 19 43 -92 c27 -57 41 -97 35
-104 -14 -18 -120 -63 -205 -86 -105 -28 -317 -30 -413 -4 -251 68 -426 247
-491 506 -18 70 -21 103 -17 209 8 207 68 351 203 486 174 173 415 246 665
201z"/>
</g>
</svg>
