<svg viewBox="0 0 100 129" xmlns="http://www.w3.org/2000/svg"><path d="M69.4 33.5c-3.4-1.4-7-2.5-10.7-3.2v-6.7C67 21.6 73 17.4 73 12.3 73 5.5 62.6 0 49.8 0 37 0 26.6 5.5 26.6 12.3c0 5 6 9.4 14.2 11.3v6.8c-3.5.7-7 1.7-10 3L26.4 26c-1-1.4-2.8-2-4.3-1l-8.5 5c-1.5.7-2 2.6-1.2 4L17 42C6.7 50.8 0 64 0 78.8c0 27.2 22.4 49.3 50 49.3s50-22 50-49c0-14.8-6.6-28-17-37l4.7-8c.8-1.4.3-3.3-1.2-4L78 25c-1.5-1-3.4-.4-4.3 1l-4.3 7.5zM50 117.7c-21.7 0-39.4-17.4-39.4-38.8 0-21.5 17.7-39 39.4-39s39.4 17.5 39.4 39c0 21.3-17.7 38.7-39.4 38.7zm-.2-100.5C57 17.2 63 14.8 63 12c0-3-6-5.3-13.2-5.3-7.4 0-13.3 2.4-13.3 5.3 0 2.8 6 5.2 13.3 5.2zm-8 74.6c-.2 0-.4 0-.6-.2.4 1.3.3 2.6-.2 4-1.2 3.5-5 5.4-8.7 4.5.5 2.4 2.3 4.4 4.7 5.2 3.8 1.3 8-.7 9.3-4.4 1.3-3.7-.7-7.8-4.5-9zM59 93.6s-.3 0-.5-.2c.3 1.3.3 2.7-.2 4-1.2 3.5-5 5.5-8.7 4.5.5 2.2 2.2 4.2 4.7 5 3.8 1.3 8-.6 9.3-4.4C65 99 63 95 59 93.6zm3-8.3c1.3-3.7-.7-7.8-4.5-9L57 76c.2 1.3.2 2.7-.3 4-1.3 3.6-5 5.5-8.7 4.6.5 2.3 2.2 4.2 4.7 5 3.8 1.3 8-.6 9.3-4.3zm12.3-7c.3 1.4.3 2.8-.2 4C73 86 69 88 65.4 87 66 89 67.6 91 70 92c4 1.3 8-.7 9.4-4.4 1.3-3.7-.7-7.7-4.5-9-.3 0-.5 0-.7-.2zM68 75c3.8 1.3 8-.7 9.3-4.4 1.4-3.7-.6-7.7-4.5-9-.2 0-.3 0-.5-.2.3 1.3.2 2.7-.2 4-1.2 3.5-5 5.5-8.7 4.5.6 2.3 2.3 4.3 4.7 5z" fill-rule="nonzero" fill="#FFFFF7"/></svg>
