<?xml version="1.0" encoding="UTF-8"?>
<svg width="100px" height="129px" viewBox="0 0 100 129" version="1.1" xmlns="http://www.w3.org/2000/svg" xmlns:xlink="http://www.w3.org/1999/xlink">
    <!-- Generator: Sketch 43.2 (39069) - http://www.bohemiancoding.com/sketch -->
    <title>chronogolf-logo-white copy</title>
    <desc>Created with Sketch.</desc>
    <defs></defs>
    <g id="Home" stroke="none" stroke-width="1" fill="none" fill-rule="evenodd">
        <g id="Home-Page" transform="translate(-1173.000000, -824.000000)" fill-rule="nonzero" fill="#FFFFF7">
            <g id="Work" transform="translate(0.000000, 548.000000)">
                <g id="Projects" transform="translate(64.000000, 177.000000)">
                    <g id="Row">
                        <g id="FJS-Copy-2" transform="translate(1031.000000, 0.000000)">
                            <g id="chronogolf-logo-white-copy" transform="translate(78.000000, 99.000000)">
                                <g id="Package">
                                    <g id="Chronogolf-Logo-">
                                        <g id="Group">
                                            <path d="M69.4453381,33.4737749 C66.049176,32.0559797 62.4621745,30.9979109 58.7337885,30.3483346 L58.7337885,23.5876769 C67.0868175,21.7326374 72.9535478,17.363521 72.9535478,12.269264 C72.9535478,5.49313663 62.5735427,0 49.7691576,0 C36.9647725,0 26.5847674,5.49313663 26.5847674,12.269264 C26.5847674,17.363521 32.4514977,21.7326374 40.8045267,23.5876769 L40.8045267,30.4323404 C37.305542,31.076178 33.9336153,32.0803286 30.7300427,33.4040565 L26.4661544,26.0847253 C25.6076733,24.6110685 23.7129264,24.1090258 22.2305411,24.9572398 L13.6777989,29.851079 C12.1926424,30.7008787 11.6883406,32.5793122 12.54522,34.0502193 L17.0723864,41.8214901 C6.61345949,50.8598662 0,64.1185107 0,78.8669692 C0,106.028709 22.4311018,128.131094 50.0031972,128.131094 C77.5688984,128.131094 100,106.028709 100,78.8669692 C100,64.1819344 93.4482082,50.9769243 83.0731385,41.9424589 L87.6707752,34.0502193 C88.5292563,32.5765625 88.020582,30.6992931 86.5381964,29.851079 L77.9854544,24.9572398 C76.5002979,24.1074401 74.6067203,24.6138181 73.749841,26.0847253 L69.4453381,33.4737749 Z M50.0025179,117.662713 C28.2889807,117.662713 10.6240716,100.256674 10.6240716,78.8662998 C10.6240716,57.4759254 28.2889807,40.0649248 50.0025179,40.0649248 C71.7160551,40.0649248 89.375929,57.4709636 89.375929,78.8662998 C89.375929,100.256674 71.7110195,117.662713 50.0025179,117.662713 Z M49.7691576,17.1769697 C57.1103384,17.1769697 63.0615413,14.8423866 63.0615413,11.9625324 C63.0615413,9.08267827 57.1103384,6.74809523 49.7691576,6.74809523 C42.4279768,6.74809523 36.4767739,9.08267827 36.4767739,11.9625324 C36.4767739,14.8423866 42.4279768,17.1769697 49.7691576,17.1769697 Z M41.8035986,91.7694925 C41.6216155,91.70625 41.438657,91.6609707 41.2436964,91.6090797 C41.5578925,92.879835 41.5207476,94.2468962 41.0411212,95.5675581 C39.7872054,99.0825878 35.9544645,101.032186 32.2904322,100.102334 C32.8461884,102.387997 34.5565365,104.353803 37.002119,105.185996 C40.8198764,106.471862 44.9805907,104.514838 46.3130353,100.805644 C47.6386661,97.1081149 45.6216811,93.0493717 41.8035986,91.7694925 Z M59.0755163,93.6101963 C58.8997124,93.5472648 58.7106069,93.5016728 58.5095005,93.4494699 C58.8113425,94.7196205 58.7865272,96.0873269 58.3069431,97.4080095 C57.0531381,100.923094 53.2145725,102.87241 49.569353,101.94348 C50.1250601,104.229178 51.822931,106.194392 54.2682976,107.026597 C58.0733916,108.31186 62.2522278,106.35574 63.5660655,102.645554 C64.9042305,98.9426023 62.8932616,94.8900953 59.0755163,93.6101963 Z M61.9949449,85.2678683 C63.3082731,81.5695579 61.2974139,77.5109538 57.4730957,76.2307089 C57.3034366,76.1680874 57.1081472,76.1221824 56.9255104,76.0709131 C57.2273849,77.3410984 57.1779118,78.707594 56.7106039,80.028936 C55.4436868,83.5554677 51.6238513,85.4937959 47.9717523,84.5705166 C48.5213552,86.8559643 50.2197331,88.8152427 52.6776893,89.648094 C56.4893549,90.9337039 60.6566365,88.9709199 61.9949449,85.2678683 Z M74.3053988,78.4399708 C74.5952783,79.7035326 74.5584569,81.064651 74.090812,82.3919684 C72.8238627,85.9184665 68.9916025,87.8561529 65.339736,86.9268947 C65.9075194,89.2192436 67.5997765,91.1781919 70.0457923,92.0044241 C73.8698825,93.2906453 78.0301306,91.3455316 79.3626342,87.6362157 C80.6821596,83.9382521 78.6650854,79.8793742 74.8653258,78.6003886 C74.6713319,78.5305326 74.4883654,78.4852517 74.3053988,78.4399708 Z M68.0472687,74.8126753 C71.8341204,76.0969483 76.0067405,74.1465875 77.3329907,70.4371817 C78.6527525,66.7334518 76.6604681,62.6760644 72.8359852,61.4018959 C72.6475177,61.3443308 72.4587252,61.2927533 72.2699325,61.2411758 C72.5721194,62.5052855 72.5353005,63.8663224 72.0611985,65.1992361 C70.8066615,68.7261464 66.9869863,70.6643406 63.3295272,69.7288385 C63.878782,72.0201153 65.5767636,73.9852451 68.0472687,74.8126753 Z" id="mark"></path>
                                        </g>
                                    </g>
                                </g>
                            </g>
                        </g>
                    </g>
                </g>
            </g>
        </g>
    </g>
</svg>