<?xml version="1.0" encoding="UTF-8"?>
<svg width="100px" height="165px" viewBox="0 0 100 165" version="1.1" xmlns="http://www.w3.org/2000/svg" xmlns:xlink="http://www.w3.org/1999/xlink">
    <!-- Generator: Sketch 43.2 (39069) - http://www.bohemiancoding.com/sketch -->
    <title>FJS Logo Copy</title>
    <desc>Created with Sketch.</desc>
    <defs></defs>
    <g id="Home" stroke="none" stroke-width="1" fill="none" fill-rule="evenodd">
        <g id="Home-Page" transform="translate(-155.000000, -805.000000)" fill-rule="nonzero" fill="#FFFFFF">
            <g id="Work" transform="translate(0.000000, 548.000000)">
                <g id="Projects" transform="translate(64.000000, 177.000000)">
                    <g id="Row">
                        <g id="FJS">
                            <g id="FJS-Logo-Copy" transform="translate(91.000000, 80.000000)">
                                <g id="Layer_1">
                                    <path d="M39.0970637,75.592947 L33.5674568,75.592947 L33.5674568,88.5913521 L39.0970637,88.5913521 L39.0970637,131.500532 C39.0970637,146.02986 36.3972295,151.720273 23.2156863,151.720273 L21.7719247,151.720273 L21.7719247,164.574251 L23.2156863,164.574251 C44.87211,164.574251 51.9898546,155.128744 51.9898546,131.702729 L51.9898546,75.592947 L38.9960004,75.592947 L39.0970637,75.592947 Z" id="Shape"></path>
                                    <path d="M77.1401814,96.9536594 C61.6486196,87.6525784 78.3240659,72.5888712 91.0869183,86.3094099 L98.5367281,79.737994 C93.9380405,73.6108397 86.6748056,70.06931 79.0170715,70.2202729 C67.4669788,70.436913 59.569603,77.0516569 59.078724,88.0569732 C58.8188469,94.0073542 61.3598673,99.6111111 67.8856697,104.463849 C74.7579748,109.504342 81.3704029,113.057239 84.6910545,115.65692 C94.0466296,123.00824 82.4676617,139.429559 67.3659155,124.004785 L58.891035,131.226121 C63.5468079,137.735145 70.9896554,141.677171 78.9881963,141.87037 C93.1803726,141.87037 99.5617988,131.226121 99.330797,121.044037 C99.0997951,109.258816 91.3323578,105.474836 77.1401814,96.9536594 Z" id="Shape"></path>
                                    <path d="M86.741196,28.1920964 L85.2108087,29.751905 C82.3232855,32.6404395 77.9198127,37.1032252 79.14701,39.0241007 C79.5885233,39.489726 80.232065,39.7061183 80.8650863,39.6018075 C81.1873178,39.618215 81.5101751,39.618215 81.8324066,39.6018075 C90.3794752,36.1355662 93.8011901,30.676236 94.8262609,27.152224 L94.8262609,26.7333865 C94.974989,24.7392606 94.9120748,22.7349829 94.6385718,20.7541201 C91.1879817,23.9315081 87.8528924,27.0222399 86.741196,28.1920964 Z" id="Shape"></path>
                                    <path d="M51.9321042,48.0652135 C50.7925522,48.0916073 49.6551987,48.178385 48.5248268,48.3251816 L37.956492,49.6539075 C38.4459931,55.8713776 40.1791062,61.9271194 43.0529704,67.4617225 C43.0475487,67.389611 43.0475487,67.3171939 43.0529704,67.2450824 C41.7391474,64.2554492 43.0385328,54.4633174 51.9321042,48.0652135 Z" id="Shape"></path>
                                    <path d="M68.6219881,43.6024278 C45.5218028,45.6821726 42.1434006,63.3166755 43.9914155,68.8771044 C43.9914155,68.8771044 50.5460931,56.904129 64.4206419,57.0052277 C98.1180373,57.2363105 95.1727636,27.4266348 95.1727636,27.4266348 L95.1727636,27.4266348 C94.8118232,31.513911 88.6758365,41.7970937 68.6219881,43.6024278 Z" id="Shape"></path>
                                    <path d="M74.6713491,34.821283 C74.9522454,34.9294188 75.2510822,34.9833263 75.5520437,34.9801524 C77.8187494,34.9801524 80.8217735,32.2504873 83.9836114,29.3619529 L84.748805,28.6687046 L87.6363282,25.9390395 C89.5709687,24.1337055 91.9676129,21.8517632 94.5086333,19.569821 C93.2981976,13.168179 91.1324068,6.9849931 88.0838943,1.22762715 C88.0838943,1.22762715 87.116574,-1.66090732 86.8711345,1.48759525 C86.6690079,4.14504696 86.4957565,9.18553961 79.0459467,12.2473861 L75.7397327,23.2960305 C73.9494683,29.4919369 73.4585894,34.3446748 74.6713491,34.821283 Z" id="Shape"></path>
                                    <path d="M56.8697688,38.5763778 C57.4705872,38.6715718 58.0776466,38.4472641 58.4723442,37.9842282 C59.5407277,36.6121744 58.3568432,34.6624136 55.1083797,30.5318093 L48.5392645,22.1983874 C44.6317057,25.1241053 41.6818006,29.145827 40.064384,33.7525253 L39.9055702,34.2291334 C44.0491659,35.3701046 48.5681397,36.6121744 50.9647839,37.3198653 C52.873405,37.9820531 54.8569667,38.4041321 56.8697688,38.5763778 Z" id="Shape"></path>
                                    <path d="M68.85299,33.0448343 C70.3833772,33.3336878 72.7367086,28.8131313 74.2093454,24.3792309 C75.0178519,21.9384193 76.519364,17.3312068 78.0353136,12.6806663 C77.4000585,12.9117491 76.7214906,13.1139465 75.9851722,13.3161439 C73.097649,14.0671629 68.174422,14.543771 62.7603161,15.8724969 C63.4100088,18.9921141 63.9442006,21.6495658 64.2040777,23.0938331 C65.7489025,31.2683856 67.8134816,32.7993089 68.85299,33.0448343 Z" id="Shape"></path>
                                    <path d="M48.5248268,46.9675704 C53.0438006,46.1298954 55.7436348,44.0068226 55.7436348,43.1691476 L55.7436348,43.0536062 C55.7436348,42.490342 55.584821,40.7572213 50.661594,38.7208045 C48.293825,37.7531455 43.8181641,36.2799929 39.7034436,34.9945951 C38.2979749,39.4350574 37.7061502,44.0930282 37.956492,48.7440191 C41.5947712,48.1663122 45.4929275,47.5308347 48.5248268,46.9675704 Z" id="Shape"></path>
                                    <path d="M26.6518388,75.5351763 L12.9505414,75.5351763 L12.9505414,55.4887471 C11.651156,45.3788765 14.8707443,39.7606769 25.3957663,41.8837498 L26.9550288,41.8837498 L29.8425519,29.2319688 L25.5112672,29.2319688 C8.85025851,29.2319688 0.115500927,39.1685274 0.115500927,55.4887471 L0.115500927,138.534113 L13.1093552,138.534113 L13.1093552,88.5480241 L26.8106526,88.5480241 L26.8106526,75.549619 L26.6518388,75.5351763 Z" id="Shape"></path>
                                    <path d="M62.7025656,34.5179869 C62.8414702,34.537175 62.9823519,34.537175 63.1212565,34.5179869 C64.7671447,34.0413787 64.2040777,30.4307106 63.5976978,26.6178451 C63.5110721,26.1123516 63.438884,25.5924154 63.3522583,25.0724792 C63.1212565,23.5559986 62.5148766,20.1764133 61.749683,16.1613503 C57.2988351,17.2351936 53.0748134,19.0936316 49.2755829,21.6495658 C51.7155399,24.5381003 53.8378695,27.1233386 54.7907521,28.2209817 C57.4472734,31.1239589 60.695737,34.5179869 62.7025656,34.5179869 Z" id="Shape"></path>
                                </g>
                            </g>
                        </g>
                    </g>
                </g>
            </g>
        </g>
    </g>
</svg>