<svg viewBox="0 0 101 100" xmlns="http://www.w3.org/2000/svg"><g fill="#FFFFF7" fill-rule="evenodd"><path d="M50.5.4C23 .4 1 22.6 1 50c0 27.4 22 49.6 49.5 49.6C78 99.6 100 77.4 100 50 100 22.6 78 .4 50.6.4zm0 92.4C27 92.8 7.7 73.6 7.7 50 7.7 26.4 27 7.2 50.5 7.2 74 7.2 93.3 26.4 93.3 50c0 23.6-19.2 42.8-42.8 42.8z"/><path d="M48.3 61.5V43c0-5-3-8.2-7.2-8.2-3.5 0-6.3 2-7.7 5.4-1.3-2.2-3.4-3.4-6-3.4-5.4 0-9 4.2-9 10.5v23l7-1V46c0-1.6 1.2-2.6 2.5-2.6 1 0 2 .7 2 2.2v23l7-1V44.4c0-1.7 1.2-2.7 2.4-2.7 1 0 2 .8 2 2.3v17.5c0 4 1.7 6.8 5 6.8 2.6 0 4-1 4.5-2V66c-1.7-.4-2.4-2.3-2.4-4.5zM75.6 30.8V54c0 1.6-1 2.6-2.4 2.6-1 0-2-.7-2-2.2v-23l-7 1v23.2c0 1.7-1.2 2.7-2.4 2.7-1 0-2-.8-2-2.3V38.5c0-4-1.7-6.8-5-6.8-2.6 0-4 1-4.5 2v.2c1.8.4 2.5 2.3 2.5 4.5V57c0 5 3 8.2 7.2 8.2 3.7 0 6.4-2 7.8-5.4 1.2 2.2 3.5 3.4 6 3.4 5.4 0 9-4.2 9-10.5v-23l-7.2 1z"/></g></svg>