<?xml version="1.0" encoding="UTF-8"?>
<svg width="101px" height="100px" viewBox="0 0 101 100" version="1.1" xmlns="http://www.w3.org/2000/svg" xmlns:xlink="http://www.w3.org/1999/xlink">
    <!-- Generator: Sketch 43.2 (39069) - http://www.bohemiancoding.com/sketch -->
    <title>MW_seal Copy 3</title>
    <desc>Created with Sketch.</desc>
    <defs></defs>
    <g id="Home" stroke="none" stroke-width="1" fill="none" fill-rule="evenodd">
        <g id="Home-Page" transform="translate(-658.000000, -841.000000)" fill="#FFFFF7">
            <g id="Work" transform="translate(0.000000, 548.000000)">
                <g id="Projects" transform="translate(64.000000, 177.000000)">
                    <g id="Row">
                        <g id="FJS-Copy" transform="translate(515.500000, 0.000000)">
                            <g id="MW_seal-Copy-3" transform="translate(79.000000, 116.000000)">
                                <path d="M50,0.363636364 C22.6363636,0.363636364 0.363636364,22.6363636 0.363636364,50 C0.363636364,77.3636364 22.6363636,99.6363636 50,99.6363636 C77.3636364,99.6363636 99.6363636,77.3636364 99.6363636,50 C99.6363636,22.6363636 77.3636364,0.363636364 50,0.363636364 L50,0.363636364 Z M50,92.8181818 C26.3636364,92.8181818 7.18181818,73.6363636 7.18181818,50 C7.18181818,26.3636364 26.3636364,7.18181818 50,7.18181818 C73.6363636,7.18181818 92.8181818,26.3636364 92.8181818,50 C92.8181818,73.6363636 73.6363636,92.8181818 50,92.8181818 L50,92.8181818 Z" id="Shape"></path>
                                <path d="M47.8181818,61.4545455 L47.8181818,42.9090909 C47.8181818,37.9090909 44.7272727,34.8181818 40.6363636,34.8181818 C37,34.8181818 34.1818182,36.8181818 32.8181818,40.1818182 C31.5454545,38 29.3636364,36.8181818 26.7272727,36.8181818 C21.3636364,36.8181818 17.7272727,41 17.7272727,47.2727273 L17.7272727,70.3636364 L24.9090909,69.3636364 L24.9090909,46 C24.9090909,44.3636364 26,43.3636364 27.2727273,43.3636364 C28.3636364,43.3636364 29.1818182,44.0909091 29.1818182,45.6363636 L29.1818182,68.6363636 L36.3636364,67.6363636 L36.3636364,44.3636364 C36.3636364,42.7272727 37.4545455,41.7272727 38.7272727,41.7272727 C39.8181818,41.7272727 40.6363636,42.4545455 40.6363636,44 L40.6363636,61.5454545 C40.6363636,65.5454545 42.3636364,68.2727273 45.7272727,68.2727273 C48.2727273,68.2727273 49.7272727,67.2727273 50.1818182,66.1818182 L50.1818182,66.0909091 C48.4545455,65.6363636 47.8181818,63.7272727 47.8181818,61.4545455 L47.8181818,61.4545455 Z" id="Shape"></path>
                                <path d="M75.0909091,30.8181818 L75.0909091,54 C75.0909091,55.6363636 74,56.6363636 72.7272727,56.6363636 C71.6363636,56.6363636 70.8181818,55.9090909 70.8181818,54.3636364 L70.8181818,31.3636364 L63.6363636,32.4545455 L63.6363636,55.6363636 C63.6363636,57.2727273 62.5454545,58.2727273 61.2727273,58.2727273 C60.1818182,58.2727273 59.3636364,57.5454545 59.3636364,56 L59.3636364,38.4545455 C59.3636364,34.4545455 57.6363636,31.7272727 54.2727273,31.7272727 C51.7272727,31.7272727 50.2727273,32.7272727 49.8181818,33.8181818 L49.8181818,33.9090909 C51.6363636,34.3636364 52.2727273,36.2727273 52.2727273,38.5454545 L52.2727273,57.0909091 C52.2727273,62.0909091 55.3636364,65.1818182 59.4545455,65.1818182 C63.1818182,65.1818182 65.9090909,63.1818182 67.2727273,59.8181818 C68.5454545,62 70.8181818,63.1818182 73.3636364,63.1818182 C78.7272727,63.1818182 82.3636364,59 82.3636364,52.7272727 L82.3636364,29.8181818 L75.0909091,30.8181818 L75.0909091,30.8181818 Z" id="Shape"></path>
                            </g>
                        </g>
                    </g>
                </g>
            </g>
        </g>
    </g>
</svg>