<?xml version="1.0" encoding="UTF-8"?>
<svg width="64px" height="64px" viewBox="0 0 64 64" version="1.1" xmlns="http://www.w3.org/2000/svg" xmlns:xlink="http://www.w3.org/1999/xlink">
    <!-- Generator: Sketch 43.2 (39069) - http://www.bohemiancoding.com/sketch -->
    <title>Mark Alone</title>
    <desc>Created with Sketch.</desc>
    <defs></defs>
    <g id="Symbols" stroke="none" stroke-width="1" fill="none" fill-rule="evenodd">
        <g id="Footer" transform="translate(-624.000000, 0.000000)">
            <g id="Mark-Alone">
                <g transform="translate(624.000000, 0.000000)">
                    <ellipse id="Oval-2" fill="#E34235" cx="32" cy="31.6235294" rx="32" ry="31.6235294"></ellipse>
                    <path d="M43.282089,46.0161123 C42.9110937,46.2941375 42.3932538,46.5953269 41.7285537,46.9196897 C41.0638537,47.2440524 40.2832293,47.5452418 39.3866572,47.823267 C38.4900851,48.1012923 37.49305,48.3329764 36.3955221,48.5183266 C35.2979941,48.7036767 34.1309221,48.7963504 32.8942709,48.7963504 C30.2663871,48.7963504 27.9090561,48.3407048 25.8222072,47.4294 C23.7353583,46.5180951 21.9654278,45.2901689 20.5123626,43.7455844 C19.0592975,42.201 17.9463281,40.4093089 17.1734211,38.3704573 C16.4005141,36.3316058 16.0140664,34.16922 16.0140664,31.883235 C16.0140664,29.3501165 16.4700747,27.0178289 17.3821049,24.8863023 C18.2941352,22.7547758 19.5384968,20.9167478 21.1152271,19.3721633 C22.6919574,17.8275789 24.5391774,16.6228211 26.6569426,15.7578538 C28.7747078,14.8928864 31.0238334,14.4604093 33.404387,14.4604093 C34.3009591,14.4604093 35.2129757,14.5221917 36.1404641,14.6457585 C37.0679525,14.7693253 37.9413243,14.939227 38.7606057,15.1554688 C39.5798871,15.3717106 40.3064088,15.6265633 40.9401925,15.9200343 C41.5739763,16.2135054 42.0609004,16.5146948 42.4009795,16.8236117 C42.1536492,17.194312 41.9604254,17.5032242 41.8213021,17.7503578 C41.6821788,17.9974913 41.5353287,18.2523439 41.3807473,18.5149232 C41.2261659,18.7775026 41.0561289,19.0786921 40.8706313,19.4185006 C40.6851336,19.7583092 40.437807,20.206232 40.1286442,20.7622824 C39.7267326,20.4842572 39.2552664,20.252573 38.7142315,20.0672229 C38.1731966,19.8818727 37.608983,19.7274166 37.0215736,19.6038499 C36.4341643,19.4802831 35.8390348,19.3876094 35.2361674,19.325826 C34.6332999,19.2640427 34.0845442,19.2331514 33.5898837,19.2331514 C31.7967395,19.2331514 30.1350143,19.5652321 28.6046585,20.2294034 C27.0743026,20.8935748 25.7526515,21.7894203 24.6396654,22.916967 C23.5266793,24.0445136 22.6533075,25.3496679 22.0195237,26.832469 C21.38574,28.3152701 21.0688529,29.8598314 21.0688529,31.4661993 C21.0688529,33.0416754 21.3702821,34.5553455 21.9731496,36.0072549 C22.576017,37.4591643 23.4107441,38.7565958 24.4773557,39.8995883 C25.5439674,41.0425808 26.8269738,41.953872 28.3264133,42.6334892 C29.8258529,43.3131063 31.4721201,43.6529098 33.2652644,43.6529098 C34.2236691,43.6529098 35.1511436,43.5602362 36.0477157,43.374886 C36.9442878,43.1895359 37.755828,42.9732973 38.4823606,42.7261638 C39.2088931,42.4790303 39.8117516,42.2319005 40.2909539,41.9847669 C40.7701562,41.7376334 41.0561275,41.5522861 41.1488764,41.4287193 L43.282089,46.0161123 Z" id="C" fill="#FFFFF7"></path>
                </g>
            </g>
        </g>
    </g>
</svg>