<svg viewBox="0 0 100 165" xmlns="http://www.w3.org/2000/svg"><g fill-rule="nonzero" fill="#FFF"><path d="M39 75.6h-5.4v13H39v43c0 14.4-2.6 20-15.8 20h-1.4v13h1.4c21.7 0 28.8-9.5 28.8-33v-56H39zM77 97c-15.4-9.3 1.3-24.4 14-10.7l7.5-6.6C94 73.7 86.7 70 79 70.2c-11.5.2-19.4 7-20 18-.2 5.8 2.4 11.4 9 16.3 6.8 5 13.4 8.6 16.7 11.2 9.3 7.3-2.2 23.7-17.3 8.3l-8.5 7.2c4.5 6.5 12 10.5 20 10.7 14.2 0 20.6-10.8 20.3-21-.2-11.7-8-15.5-22.2-24zM86.7 28.2l-1.5 1.6c-3 2.8-7.3 7.3-6 9.2.4.5 1 .7 1.7.6h.8c8.6-3.5 12-9 13-12.4v-.5c.2-2 0-4-.2-6l-8 7.5zM52 48c-1.2 0-2.3.2-3.5.3L38 49.7c.4 6.2 2.2 12.2 5 17.8v-.3c-1.3-3 0-12.7 9-19z"/><path d="M68.6 43.6C45.6 45.6 42 63.3 44 69c0 0 6.5-12 20.4-12 33.7.2 30.8-29.6 30.8-29.6-.4 4-6.5 14.4-26.6 16.2zM74.7 34.8l1 .2c2 0 5-2.7 8.3-5.6l.7-.7 3-2.8 6.8-6.4C93.3 13.2 91 7 88 1.2c0 0-1-3-1 .3-.3 2.6-.5 7.7-8 10.7l-3.3 11c-1.8 6.3-2.2 11-1 11.6zM57 38.6c.5 0 1-.2 1.5-.6 1-1.4 0-3.3-3.4-7.5l-6.5-8.3c-4 3-6.8 7-8.4 11.6v.4c4 1.2 8.6 2.4 11 3 2 .8 4 1.2 6 1.4zM69 33c1.4.3 3.7-4.2 5.2-8.6L78 12.7l-2 .6c-3 .8-7.8 1.2-13.2 2.6.6 3 1 5.6 1.4 7 1.5 8.3 3.6 9.8 4.7 10zM48.5 47c4.5-1 7.2-3 7.2-3.8 0-.7 0-2.4-5-4.5-2.4-1-7-2.4-11-3.7-1.4 4.4-2 9-1.7 13.7L48.5 47zM26.7 75.5H13v-20c-1.3-10 2-15.7 12.4-13.6H27L29.8 29h-4.3C9 29.2 0 39.2 0 55.5v83h13v-50H27v-13zM62.7 34.5h.4c1.8-.5 1.2-4 .6-8l-.2-1.4-1.7-8.8c-4.4 1-8.6 3-12.4 5.4l5.5 6.6c2.6 3 6 6.3 8 6.3z"/></g></svg>