<?xml version="1.0" encoding="UTF-8"?>
<svg width="194px" height="22px" viewBox="0 0 194 22" version="1.1" xmlns="http://www.w3.org/2000/svg" xmlns:xlink="http://www.w3.org/1999/xlink">
    <!-- Generator: Sketch 43.2 (39069) - http://www.bohemiancoding.com/sketch -->
    <title>All in one version</title>
    <desc>Created with Sketch.</desc>
    <defs></defs>
    <g id="Symbols" stroke="none" stroke-width="1" fill="none" fill-rule="evenodd">
        <g id="Header" transform="translate(0.000000, -2.000000)">
            <g id="All-in-one-version">
                <g transform="translate(0.000000, 2.000000)">
                    <g id="Name">
                        <path d="M15.0125262,2.31092758 L15.0125262,5.68958803 C13.3544915,4.3103695 11.6390259,3.62077058 9.86607788,3.62077058 C7.91255186,3.62077058 6.266854,4.31853044 4.92893491,5.71407108 C3.58280774,7.10145066 2.90975425,8.79892493 2.90975425,10.8065448 C2.90975425,12.7896815 3.58280774,14.462673 4.92893491,15.8255694 C6.27506209,17.1884658 7.92486394,17.8699038 9.87838996,17.8699038 C10.8879853,17.8699038 11.7457181,17.7066851 12.4516141,17.3802429 C12.8456025,17.2170217 13.253949,16.9966765 13.6766658,16.7192006 C14.0993825,16.4417247 14.5446649,16.1071264 15.0125262,15.7153957 L15.0125262,19.1552637 C13.3709077,20.0774631 11.6472341,20.5385559 9.84145373,20.5385559 C7.1245751,20.5385559 4.80582375,19.595968 2.8851301,17.710764 C0.972644538,15.8092378 0.016416103,13.5160154 0.016416103,10.8310278 C0.016416103,8.42351621 0.81669312,6.27719058 2.41727116,4.39198655 C4.38721337,2.0824076 6.93578787,0.927635438 10.0630711,0.927635438 C11.7703544,0.927635438 13.4201562,1.38872821 15.0125262,2.31092758 Z M17.7887628,10.6596465 C17.7887628,7.99914214 18.7696151,5.71408063 20.7313492,3.80439343 C22.6848753,1.89470624 25.0323545,0.939876961 27.7738574,0.939876961 C30.4825279,0.939876961 32.8053833,1.90286717 34.7424931,3.82887648 C36.687811,5.75488579 37.6604554,8.06851057 37.6604554,10.7698202 C37.6604554,13.487452 36.6837071,15.7929159 34.730181,17.6862809 C32.7684469,19.5878071 30.4004477,20.5385559 27.6261125,20.5385559 C25.1718928,20.5385559 22.968053,19.6938992 21.014527,18.0045605 C18.8640068,16.1356786 17.7887628,13.6873984 17.7887628,10.6596465 Z M20.6821009,10.6963711 C20.6821009,12.7856015 21.3879863,14.5034781 22.7997782,15.8500524 C24.203362,17.1966267 25.824436,17.8699038 27.6630487,17.8699038 C29.6576152,17.8699038 31.3402489,17.1843853 32.7110004,15.8133279 C34.0817518,14.4259483 34.7671173,12.7366349 34.7671173,10.7453372 C34.7671173,8.72955626 34.0899598,7.04024292 32.7356245,5.67734651 C31.3894973,4.30628903 29.7232796,3.62077058 27.7369212,3.62077058 C25.7587709,3.62077058 24.0884491,4.30628903 22.7259057,5.67734651 C21.3633624,7.03208187 20.6821009,8.70507333 20.6821009,10.6963711 Z M41.4955307,20.1957932 L41.4955307,0.00952118485 L55.3589296,14.4300357 L55.3589296,1.29488114 L58.2276436,1.29488114 L58.2276436,21.3464964 L44.3642447,6.96270646 L44.3642447,20.1957932 L41.4955307,20.1957932 Z M62.2350879,10.6596465 C62.2350879,7.99914214 63.2159403,5.71408063 65.1776744,3.80439343 C67.1312004,1.89470624 69.4786797,0.939876961 72.2201826,0.939876961 C74.9288531,0.939876961 77.2517084,1.90286717 79.1888183,3.82887648 C81.1341362,5.75488579 82.1067806,8.06851057 82.1067806,10.7698202 C82.1067806,13.487452 81.1300322,15.7929159 79.1765062,17.6862809 C77.2147721,19.5878071 74.8467729,20.5385559 72.0724376,20.5385559 C69.618218,20.5385559 67.4143782,19.6938992 65.4608522,18.0045605 C63.3103319,16.1356786 62.2350879,13.6873984 62.2350879,10.6596465 Z M65.1284261,10.6963711 C65.1284261,12.7856015 65.8343115,14.5034781 67.2461034,15.8500524 C68.6496872,17.1966267 70.2707612,17.8699038 72.1093739,17.8699038 C74.1039404,17.8699038 75.7865741,17.1843853 77.1573255,15.8133279 C78.528077,14.4259483 79.2134424,12.7366349 79.2134424,10.7453372 C79.2134424,8.72955626 78.536285,7.04024292 77.1819497,5.67734651 C75.8358225,4.30628903 74.1696047,3.62077058 72.1832463,3.62077058 C70.205096,3.62077058 68.5347743,4.30628903 67.1722309,5.67734651 C65.8096876,7.03208187 65.1284261,8.70507333 65.1284261,10.6963711 Z M92.3810722,12.1408708 L98.2662451,20.1957932 L94.7573031,20.1957932 L89.3276771,12.4591505 L88.8105698,12.4591505 L88.8105698,20.1957932 L85.9418558,20.1957932 L85.9418558,1.29488114 L89.3030529,1.29488114 C91.8147292,1.29488114 93.6286905,1.76413484 94.7449911,2.70265633 C95.9762049,3.74727155 96.5918026,5.12646939 96.5918026,6.84029123 C96.5918026,8.17870448 96.2060281,9.32939617 95.4344674,10.2924008 C94.6629067,11.2554055 93.6451185,11.871556 92.3810722,12.1408708 Z M88.8105698,9.97412121 L89.7216635,9.97412121 C92.4385422,9.97412121 93.7969611,8.94176306 93.7969611,6.8770158 C93.7969611,4.94284543 92.475478,3.97577476 89.8324722,3.97577476 L88.8105698,3.97577476 L88.8105698,9.97412121 Z M110.294871,1.29488114 L115.244326,13.9281333 L120.415398,0.376766886 L125.364854,13.9281333 L130.62211,1.29488114 L133.737066,1.29488114 L125.241733,21.3954625 L120.353838,8.00323595 L115.256638,21.407704 L107.179915,1.29488114 L110.294871,1.29488114 Z M145.882793,15.605222 L137.74451,15.605222 L135.626833,20.1957932 L132.536502,20.1957932 L141.942929,0.107453372 L151.01693,20.1957932 L147.87735,20.1957932 L145.882793,15.605222 Z M144.713146,12.9243283 L141.89368,6.49752857 L138.938782,12.9243283 L144.713146,12.9243283 Z M153.620797,20.1957932 L153.620797,1.29488114 L157.60991,1.29488114 C159.522396,1.29488114 161.032662,1.48258262 162.140755,1.85799121 C163.330928,2.22523875 164.410276,2.8495502 165.378831,3.73094429 C167.340565,5.51005458 168.321417,7.84816217 168.321417,10.7453372 C168.321417,13.6506733 167.299525,16.0010222 165.25571,17.7964546 C164.229699,18.6941709 163.154455,19.3184823 162.029946,19.6694077 C160.97931,20.0203332 159.489564,20.1957932 157.560662,20.1957932 L153.620797,20.1957932 Z M156.489511,17.5148996 L157.782279,17.5148996 C159.07095,17.5148996 160.14209,17.3802442 160.995731,17.1109293 C161.849373,16.8252924 162.620922,16.3723605 163.310402,15.7521202 C164.722194,14.4708344 165.428079,12.8019234 165.428079,10.7453372 C165.428079,8.67242886 164.730402,6.99127646 163.335026,5.70182955 C162.079188,4.5511206 160.228291,3.97577476 157.782279,3.97577476 L156.489511,3.97577476 L156.489511,17.5148996 Z M182.646382,3.97577476 L175.025207,3.97577476 L175.025207,8.51737993 L182.424765,8.51737993 L182.424765,11.1982735 L175.025207,11.1982735 L175.025207,17.5148996 L182.646382,17.5148996 L182.646382,20.1957932 L172.156493,20.1957932 L172.156493,1.29488114 L182.646382,1.29488114 L182.646382,3.97577476 Z" id="CONOR-WADE" fill="#153431"></path>
                        <ellipse id="Oval-3" fill="#E34235" cx="191.083439" cy="17.8889462" rx="2.32014255" ry="2.30684707"></ellipse>
                    </g>
                </g>
            </g>
        </g>
    </g>
</svg>